<svg xmlns="http://www.w3.org/2000/svg" viewBox="0 0 484.5 108.3"><defs><style>.cls-1{fill:#f15a24;}.cls-2{fill:#333;}</style></defs><title>psicode-logo</title><g id="Camada_2" data-name="Camada 2"><g id="Layer_1" data-name="Layer 1"><path class="cls-1" d="M262.48,59.16c-5.83,19.47-8.29,44.63,17.74,48.72,22.83,3.58,36.69-16.86,53-28.16,20.57-14.28,71.94,21.09,79.65-23.31,3.55-20.39-19-28.49-35.05-26.57C356.64,32.37,355,30.07,340.25,15c-38.75-39.54-66.74,7.33-77.77,44.13C259.82,68,263.53,55.68,262.48,59.16Z"/><path class="cls-2" d="M0,95V41.52H93.66c12.84,0,21,7.72,21,19.72,0,12.54-8.19,20.42-21,20.42H13L13.15,95ZM93.66,70.5c4.66,0,7.34-2.91,7.34-9.1,0-5.89-2.6-8.72-7.34-8.72H13V70.5Z"/><path class="cls-2" d="M136.17,76.69c0,5.73,3.37,9,8.72,9h3.21c4.59,0,7.34-2.06,7.34-5.73,0-5.13-7.26-5.89-12.77-7-12.15-2.44-18-4.82-18-15.9,0-10.55,7.26-16.67,19.11-16.67h3.06c12.77,0,20.34,7.11,20,18.66H154.14c.23-5.12-2.67-8.18-7.26-8.18h-3.21c-4.06.15-6.5,1.75-6.5,5,0,3.82,1.6,5.35,10.32,6.72,10.7,1.76,20.41,3.83,20.41,16.75,0,10.7-7.57,16.9-20,16.9h-3.06c-13.69,0-21.79-7.42-21.41-19.5Z"/><path class="cls-2" d="M180.52,41.52h12.23V95H180.52Z"/><path class="cls-2" d="M229,40.37h2.29c14.53,0,23.39,7.88,23.39,20.65H241.76c0-6.05-4-9.71-10.47-9.71H229c-7,0-11.24,6.42-11.24,17s4.28,17,11.24,17h2.29c6.5,0,10.47-3.67,10.47-9.71h12.92c0,12.77-8.86,20.65-23.39,20.65H229c-14.91,0-24-10.63-24-27.91S214.09,40.37,229,40.37Z"/><path class="cls-2" d="M405.29,41.52c18.89,0,30.51,10.17,30.51,26.76S424.18,95,405.29,95h-16V41.52Zm0,42.81c11,0,17.74-6.11,17.74-16s-6.73-16.06-17.74-16.06h-3.74V84.33Z"/><path class="cls-2" d="M460.27,62.16h21.17V72.87H460.27V84.33H484.5V95H448V41.52H484.5v10.7H460.27Z"/><path class="cls-2" d="M347.11,40.14c20.41,0,31,9.87,31,28.14s-10.55,28.13-31,28.13H294.36c-20.42,0-31-9.78-31-28.13s10.55-28.14,31-28.14ZM344.82,85c13,0,19.72-6,19.72-16.74s-6.73-16.74-19.72-16.74H296.65c-13,0-19.73,6-19.73,16.74S283.65,85,296.65,85Z"/></g></g></svg>